# xmcd
#
# Track frame offsets: 
#        150
#        11447
#        31625
#        50112
#        63822
#        75627
#        95342
#        118812
#        137187
#        152365
#        174095
#
# Disc length: 2576 seconds
#
# Revision: 2
# Processed by: cddbd v1.5.2PL0 Copyright (c) Steve Scherf et al.
# Submitted via: ExactAudioCopy v0.95b4
#
DISCID=7a0a0e0b
DTITLE=Lil' Band O' Gold - Lil' Band O' Gold
DYEAR=1900
DGENRE=Zydeco
TTITLE0=Shirley
TTITLE1=7 Letters
TTITLE2=Parlez Nous a Boire
TTITLE3=Please Mr. Sandman
TTITLE4=7 Nights 2 Rock
TTITLE5=Dreamgirl
TTITLE6=First You Cry
TTITLE7=Allons Rock N Roll
TTITLE8=In Another Time
TTITLE9=That Feel
TTITLE10=Cajun Twist
EXTD=ID3G:   0
EXTT0=
EXTT1=
EXTT2=
EXTT3=
EXTT4=
EXTT5=
EXTT6=
EXTT7=
EXTT8=
EXTT9=
EXTT10=
PLAYORDER=
